<svg width="1125" height="197" viewBox="0 0 1125 197" fill="none" xmlns="http://www.w3.org/2000/svg">
<path d="M1110.95 12.1645C1111.79 12.1645 1112.48 12.0437 1113.01 11.8083C1113.55 11.5665 1113.82 10.9939 1113.82 10.0777C1113.82 9.67056 1113.73 9.34609 1113.54 9.10432C1113.35 8.86256 1113.11 8.67806 1112.82 8.54445C1112.53 8.4172 1112.2 8.32177 1111.84 8.27724C1111.48 8.22634 1111.14 8.20725 1110.81 8.20725H1108.36V12.1645H1110.95ZM1110.99 5.86596C1112.83 5.86596 1114.24 6.20316 1115.24 6.87119C1116.23 7.54558 1116.72 8.69714 1116.72 10.3322C1116.72 11.0257 1116.62 11.6238 1116.43 12.1136C1116.23 12.6035 1115.96 13.0107 1115.6 13.3161C1115.25 13.6279 1114.84 13.8696 1114.38 14.035C1113.91 14.2068 1113.41 14.3086 1112.88 14.3595L1116.8 20.9444H1113.76L1110.19 14.4995H1108.37V20.9444H1105.47V5.86596H1111H1110.99ZM1101.58 17.6742C1102.09 18.9721 1102.79 20.0919 1103.67 21.0398C1104.56 21.9878 1105.6 22.7258 1106.8 23.2539C1108 23.7819 1109.29 24.0428 1110.67 24.0428C1112.04 24.0428 1113.29 23.7756 1114.5 23.2539C1115.7 22.7258 1116.74 21.9878 1117.63 21.0398C1118.51 20.0919 1119.21 18.9721 1119.74 17.6742C1120.26 16.3763 1120.53 14.9639 1120.53 13.4243C1120.53 11.8846 1120.26 10.4786 1119.74 9.19339C1119.21 7.90823 1118.51 6.8012 1117.63 5.8596C1116.74 4.92435 1115.7 4.1927 1114.5 3.66463C1113.3 3.13657 1112.02 2.87572 1110.67 2.87572C1109.31 2.87572 1108 3.14293 1106.8 3.66463C1105.6 4.1927 1104.56 4.92435 1103.67 5.8596C1102.78 6.79484 1102.09 7.90823 1101.58 9.19339C1101.07 10.4786 1100.81 11.8846 1100.81 13.4243C1100.81 14.9639 1101.07 16.3763 1101.58 17.6742ZM1098.34 7.88278C1099.08 6.2286 1100.06 4.81619 1101.3 3.65191C1102.53 2.48762 1103.96 1.59055 1105.58 0.954332C1107.2 0.318111 1108.9 0 1110.67 0C1112.43 0 1114.13 0.318111 1115.75 0.954332C1117.37 1.59055 1118.8 2.49399 1120.04 3.65191C1121.27 4.81619 1122.26 6.22224 1122.99 7.88278C1123.73 9.53695 1124.09 11.3884 1124.09 13.4243C1124.09 15.4602 1123.73 17.3497 1122.99 19.0039C1122.26 20.6581 1121.27 22.0769 1120.04 23.2539C1118.8 24.4309 1117.37 25.328 1115.75 25.9515C1114.13 26.575 1112.43 26.8867 1110.67 26.8867C1108.9 26.8867 1107.2 26.575 1105.58 25.9515C1103.96 25.328 1102.53 24.4245 1101.3 23.2539C1100.06 22.0769 1099.08 20.6645 1098.34 19.0039C1097.6 17.3497 1097.24 15.4856 1097.24 13.4243C1097.24 11.3629 1097.61 9.53695 1098.34 7.88278Z" fill="white"/>
<path d="M0 163.63L33.2667 122.74C53.1267 139.86 73.4872 148.036 91.8575 148.036C99.3057 148.036 104.516 145.23 104.516 140.115C104.516 134.491 101.29 132.703 75.9659 122.994C43.6943 110.728 28.5506 98.9705 28.5506 72.6564C28.5506 38.1541 59.3325 10.0459 106.754 10.0459C137.789 10.0459 165.345 20.27 184.216 36.8753L150.949 77.7653C137.789 66.7777 119.172 57.8325 100.802 57.8325C93.3595 57.8325 88.1427 59.8747 88.1427 64.9899C88.1427 70.3533 91.8699 71.3776 115.945 80.5774C145.491 91.8194 164.356 104.601 164.356 131.939C164.356 167.975 135.558 196.083 85.6517 196.083C51.1425 196.083 21.1023 183.308 0 163.63Z" fill="white"/>
<path d="M204.082 13.6215H352.292L339.386 62.6868H248.27L243.554 80.8318H328.464L317.289 124.019H232.379L227.168 143.436H319.52L306.861 192.508H157.402L204.082 13.6215Z" fill="white"/>
<path d="M423.048 98.7224C442.413 98.7224 452.593 89.5226 452.593 78.2806C452.593 74.705 451.351 71.384 448.866 68.8264C445.64 65.5053 439.928 63.7175 431.738 63.7175H411.137L401.952 98.7287H423.054L423.048 98.7224ZM366.2 13.6215H433.976C466 13.6215 486.361 20.7789 498.031 32.7844C507.717 42.7477 511.685 56.0383 511.685 70.0924C511.685 97.9462 497.536 121.964 463.274 132.957L487.362 192.501H424.797L405.432 141.394H391.036L377.629 192.501H319.533L366.2 13.6215Z" fill="white"/>
<path d="M514.027 117.631C514.027 68.82 550.7 4.22445 625.504 9.5369C662.677 12.1772 677.796 31.4102 688.069 44.6309L644.882 79.3622C640.264 67.8275 630.374 62.3941 617.808 63.2021C591.792 64.869 574.856 87.7348 574.856 112.268C574.856 131.946 586.773 142.933 602.164 142.933C615.571 142.933 626.493 136.285 635.931 124.279L676.152 156.987C658.77 180.496 633.453 196.083 596.459 196.083C547.795 196.083 514.034 165.672 514.034 117.631" fill="white"/>
<path d="M803.254 96.1647C803.254 77.2499 792.085 62.4323 771.23 62.4323C746.901 62.4323 731.263 86.965 731.263 109.455C731.263 128.364 742.432 143.188 763.287 143.188C787.616 143.188 803.254 118.655 803.254 96.1711M672.913 114.819C672.913 59.3657 716.855 9.79138 775.198 9.79138C826.341 9.79138 861.598 45.0571 861.598 90.8014C861.598 146.254 817.656 195.829 759.313 195.829C708.17 195.829 672.913 160.563 672.913 114.819Z" fill="white"/>
<path d="M893.875 13.3671H951.224L972.079 76.2321L1025.71 13.3671H1089.51L1042.84 192.253H984.991L1008.08 103.577L951.477 167.205H950.482L927.142 103.577L904.056 192.253H847.202L893.875 13.3671Z" fill="white"/>
</svg>
