<?xml version="1.0" encoding="UTF-8" standalone="no"?>
<!-- Created with Inkscape (http://www.inkscape.org/) -->
<svg
   xmlns:svg="http://www.w3.org/2000/svg"
   xmlns="http://www.w3.org/2000/svg"
   version="1.0"
   width="500"
   height="137"
   id="svg2"
   xml:space="preserve"><defs
     id="defs6" /><g
     transform="matrix(1.25,0,0,-1.25,-266.295,718.39451)"
     id="g12"><path
       d="m 329.02317,559.06068 c 0,0 2.18896,-1.70032 2.18896,-9.24052 0,-7.53622 0,-37.6851 0,-42.79003 0,-5.1089 1.46196,-6.56689 4.37792,-6.56689 2.91994,0 13.86078,0 13.86078,0 0,0 -2.4313,2.91597 -2.4313,7.04759 0,4.13559 0,37.69305 0,43.52895 0,5.83591 -0.97331,8.26721 -4.37792,8.26721 -3.40461,0 -13.61844,-0.24631 -13.61844,-0.24631"
       id="path102"
       style="fill:#010202;fill-opacity:1;fill-rule:evenodd;stroke:none" /><path
       d="m 357.22939,559.30699 c 0,0 2.18896,-1.70032 2.18896,-6.56292 0,-4.86656 0,-25.29025 0,-36.23506 0,-10.94084 9.24052,-17.99239 21.64331,-17.99239 11.18318,0 15.31876,5.8359 15.31876,5.8359 0,0 0.73098,-4.13161 4.62026,-4.13161 3.88928,0 13.1298,0.24233 13.1298,0.24233 0,0 -2.4313,3.64695 -2.4313,7.77857 0,4.13558 0,51.06518 0,51.06518 l -17.99239,0 c 0,0 2.18896,-3.16228 2.18896,-7.53623 0,-4.37792 -0.2463,-24.80558 -0.2463,-30.15285 0,-5.34726 -1.94266,-11.67181 -10.45617,-11.67181 -8.50954,0 -9.72519,8.50954 -9.72519,11.67181 0,3.16228 0,29.17954 0,32.09551 0,2.91596 -1.70032,5.8359 -3.88928,5.8359 -2.18896,0 -14.34942,-0.24233 -14.34942,-0.24233"
       id="path104"
       style="fill:#010202;fill-opacity:1;fill-rule:evenodd;stroke:none" /><path
       d="m 421.42437,559.30699 c 0,0 3.16228,-2.18896 3.16228,-8.02487 0,-5.83591 0,-36.71576 0,-42.55167 0,-5.83591 -2.4313,-8.26721 -2.4313,-8.26721 l 16.77674,0 c 0,0 -2.18896,2.67364 -2.18896,8.26721 0,5.5896 0,32.58017 0,32.58017 0,0 6.80922,-13.8568 10.94481,-20.66602 4.13162,-6.80922 7.78254,-7.29787 11.18715,-7.53623 3.40461,-0.24233 4.85862,0.72701 4.85862,0.72701 0,0 8.2672,23.10129 12.40279,29.66818 -0.48467,-0.48865 0,-30.63752 0,-35.74643 0,-5.10492 -2.4313,-7.53622 -2.4313,-7.53622 l 18.48104,0 c 0,0 -2.4313,3.88928 -2.4313,8.0209 0,4.13558 0,38.90472 0,43.52895 0,4.61629 2.4313,7.53623 2.4313,7.53623 0,0 -14.83409,-0.24631 -18.2387,-0.24631 -3.40461,0 -5.10493,-1.70032 -6.80922,-6.31661 -1.70032,-4.62423 -8.50954,-21.88564 -8.50954,-21.88564 0,0 -8.75188,17.99239 -10.6985,22.36634 -1.94663,4.3819 -3.40461,6.32455 -7.05156,6.32455 -3.64694,0 -19.45435,-0.24233 -19.45435,-0.24233"
       id="path106"
       style="fill:#010202;fill-opacity:1;fill-rule:evenodd;stroke:none" /><path
       d="m 518.93448,549.33946 c 0,0 5.34726,0.24234 7.05155,0.24234 1.70032,0 8.50954,-1.94663 8.50954,-7.78253 0,-12.15649 -15.56109,-13.86078 -15.56109,-13.86078 l 0,21.40097 z m -18.96968,10.20986 c 0,0 21.64331,0 31.3685,0 9.72916,0 17.50772,-7.29389 17.50772,-18.72337 0,-18.72337 -29.90654,-22.61265 -29.90654,-22.61265 0,0 0,-7.78253 0,-12.40279 0,-4.62026 -1.94663,-5.34727 -3.89326,-5.34727 -1.94265,0 -15.07642,0 -15.07642,0 0,0 2.6776,3.40461 2.6776,7.29389 0,3.88929 0,41.33603 0,44.98694 0,3.64298 -2.6776,6.80525 -2.6776,6.80525"
       id="path108"
       style="fill:#010202;fill-opacity:1;fill-rule:evenodd;stroke:none" /><path
       d="m 610.84704,507.26849 c 0,4.13559 0,52.0385 0,52.0385 l -18.72337,0 c 0,0 2.18896,-4.13162 2.18896,-7.78254 0,-0.9892 0,-4.13956 0,-8.26323 -7.54814,-0.85413 -14.88176,-4.60437 -22.85499,-9.9556 0,13.0265 0,26.00137 0,26.00137 l -18.72337,0 c 0,0 2.18499,-4.13162 2.18499,-7.78254 0,-2.5028 0,-18.51281 0,-30.27997 -26.79988,-20.12177 -63.85333,-46.72302 -132.76391,-47.28714 -88.99659,-0.72701 -114.52918,48.62991 -114.52918,48.62991 0,0 12.64512,5.1089 12.64512,18.48104 0,10.94481 -8.51351,18.48103 -16.77674,18.48103 -8.27118,0 -26.26357,-0.48864 -26.26357,-0.48864 l -1.45798,15.32273 c 0,0 -11.67182,-1.21565 -31.3685,-1.21565 -19.69669,0 -29.91052,0.96934 -29.91052,0.96934 L 213.036,555.90238 c 5.83591,2.43129 23.58596,3.64694 23.58596,3.64694 0,0 -0.24233,-17.99239 -0.24233,-33.55746 0,-15.56109 -3.88928,-25.77095 -3.88928,-25.77095 l 25.53259,0.24233 c 0,0 -4.13559,10.94084 -4.13559,26.50194 0,11.67181 0,32.58414 0,32.58414 0,0 16.53441,-0.96934 18.96571,-2.43129 1.52154,-0.90975 2.43129,-2.4313 2.43129,-4.13559 0,-1.70032 0,-41.82069 0,-45.22531 0,-3.40461 -2.18499,-7.53622 -2.18499,-7.53622 l 19.69272,0.24233 c 0,0 -1.94266,3.16228 -1.94266,5.83591 0,2.67363 -0.24631,12.39882 -0.24631,12.39882 l 2.43527,0.24631 c 0,0 35.74245,-53.49648 127.90132,-53.49648 64.68363,0 105.38401,22.70005 134.17422,40.92286 0,0 0,0 0,0 0.50057,-4.03627 2.01814,-6.14975 4.18327,-6.14975 2.6776,0 14.34942,0 14.34942,0 0,0 -2.18897,2.91597 -2.18897,7.04758 0,1.18784 0,5.99879 0,12.23991 7.78254,5.90345 15.83919,10.43631 22.85499,12.80801 0,-9.5782 0,-19.71654 0,-22.85896 0,-6.07824 1.70429,-9.23654 4.37792,-9.23654 2.67364,0 14.34545,0 14.34545,0 0,0 -2.18896,2.91597 -2.18896,7.04758 z m -319.99762,42.07097 c 0,0 3.88928,0 6.56291,0 2.67761,0 8.99819,-1.94662 8.99819,-7.78253 0,-11.91415 -15.80741,-13.37213 -15.80741,-13.37213 l 0.24631,21.15466"
       id="path110"
       style="fill:#010202;fill-opacity:1;fill-rule:evenodd;stroke:none" /></g></svg>